<?xml version="1.0" standalone="no"?>
<!DOCTYPE svg PUBLIC "-//W3C//DTD SVG 20010904//EN"
 "http://www.w3.org/TR/2001/REC-SVG-20010904/DTD/svg10.dtd">
<svg version="1.0" xmlns="http://www.w3.org/2000/svg"
 width="300.000000pt" height="300.000000pt" viewBox="0 0 300.000000 300.000000"
 preserveAspectRatio="xMidYMid meet">
<metadata>
Created by potrace 1.11, written by Peter Selinger 2001-2013
</metadata>
<g transform="translate(0.000000,300.000000) scale(0.100000,-0.100000)"
fill="#000000" stroke="none">
<path d="M365 2973 c5 -10 13 -37 19 -60 7 -24 17 -48 24 -55 7 -7 12 -23 12
-37 0 -25 42 -120 76 -172 10 -15 14 -34 11 -44 -6 -15 -13 -12 -55 17 -59 44
-132 81 -132 68 0 -5 10 -15 22 -21 30 -16 88 -78 85 -91 -1 -6 11 -14 26 -19
16 -4 34 -13 42 -19 18 -15 9 -39 -13 -35 -9 1 -25 -2 -35 -7 -17 -9 -26 -11
-122 -23 -73 -9 -109 -16 -120 -25 -5 -4 -25 -10 -43 -14 -64 -12 -97 -35
-131 -91 -19 -31 -31 -59 -27 -62 13 -14 223 -21 296 -10 70 10 81 13 140 43
73 37 88 50 116 107 18 35 30 47 47 47 13 0 27 -4 32 -9 13 -12 185 -67 259
-83 33 -7 61 -18 63 -25 5 -13 -31 -35 -62 -39 -29 -3 -164 -87 -207 -128 -39
-38 -55 -74 -54 -121 l1 -30 65 2 c79 3 167 43 252 116 78 66 102 107 94 158
l-6 40 45 -2 c55 -3 63 -11 35 -39 -40 -40 -17 -190 42 -271 16 -21 22 -46 24
-95 2 -36 5 -68 8 -71 3 -3 18 4 35 16 16 12 45 28 63 37 18 8 44 21 58 29 15
9 28 11 36 5 6 -6 13 -7 17 -4 3 3 25 7 48 9 24 2 66 15 94 30 29 14 70 28 91
29 53 5 51 4 51 19 0 15 33 67 42 67 4 0 7 -10 5 -22 -1 -13 -3 -37 -3 -55 -1
-17 -7 -38 -14 -45 -25 -25 -27 -50 -8 -94 24 -53 40 -61 98 -46 40 11 47 10
74 -9 19 -13 36 -18 50 -14 23 8 50 63 51 107 1 21 11 38 37 59 l36 29 8 -71
c11 -96 48 -160 107 -185 29 -12 29 -12 100 5 96 22 100 22 100 9 0 -7 -14
-33 -30 -58 -16 -25 -30 -53 -30 -62 0 -10 -4 -18 -10 -18 -5 0 -10 -7 -10
-15 0 -9 -8 -32 -19 -53 -30 -60 -18 -64 65 -26 77 35 87 35 55 0 -30 -33 -31
-71 -3 -102 50 -53 55 -69 37 -121 -13 -37 -28 -223 -19 -223 4 0 201 118 259
155 69 45 78 54 105 115 48 107 60 118 80 71 17 -42 47 -68 62 -53 15 15 68
16 68 2 0 -5 -8 -10 -17 -10 -14 0 -13 -3 5 -20 17 -16 21 -27 16 -47 -5 -18
-3 -24 5 -19 8 5 11 99 11 336 l-1 330 -23 6 c-24 6 -41 35 -51 84 -24 117
-24 131 0 193 18 48 34 61 36 30 0 -10 2 -43 3 -73 3 -67 15 -140 27 -160 5
-8 8 130 8 318 0 183 -3 331 -8 328 -9 -6 -46 -107 -55 -151 -4 -18 0 -41 9
-59 21 -40 19 -50 -18 -90 l-34 -35 -1 47 c-1 26 2 53 7 61 6 10 5 24 -3 40
-14 29 -14 30 -1 86 4 22 8 43 7 47 -5 22 33 86 63 108 21 15 35 34 35 48 0
12 -2 22 -5 22 -3 0 -31 -25 -61 -55 -31 -30 -68 -58 -83 -61 -93 -23 -411
-211 -492 -293 -83 -82 -128 -107 -144 -81 -7 11 -81 -35 -89 -55 -3 -8 -33
-28 -68 -45 -35 -17 -72 -40 -84 -51 -11 -10 -25 -19 -31 -19 -7 0 -25 -16
-41 -36 -42 -51 -51 -25 -13 36 17 28 31 57 31 66 0 47 111 156 184 180 42 14
279 154 296 175 3 3 25 16 50 29 25 12 51 27 59 33 7 6 23 11 35 12 15 0 21 7
22 23 3 54 -108 28 -212 -50 -28 -21 -55 -38 -59 -38 -5 0 -51 -27 -104 -60
-53 -33 -99 -60 -104 -60 -4 0 -20 -6 -35 -13 -15 -7 -46 -15 -69 -16 l-42 -2
2 35 c2 31 8 39 55 68 29 18 65 43 80 54 29 23 48 30 101 39 41 7 150 52 172
71 8 8 27 14 42 14 14 0 32 6 39 13 7 6 32 24 55 40 25 15 45 38 49 52 7 26
12 29 31 17 8 -5 9 -19 3 -46 -11 -51 -7 -59 43 -83 51 -25 77 -16 101 33 10
23 29 40 52 50 35 15 74 11 74 -7 0 -19 32 -8 60 21 22 22 39 30 65 30 33 0
35 2 35 35 0 34 -1 35 -40 35 -22 0 -40 5 -40 10 0 6 3 9 8 9 4 -1 22 4 40 11
24 9 32 18 32 36 0 24 0 24 -119 24 -115 0 -123 -1 -203 -36 -45 -19 -101 -38
-123 -40 -22 -3 -47 -7 -56 -10 -9 -2 -22 2 -28 10 -7 8 -36 20 -64 25 -29 6
-74 15 -102 21 -93 19 -119 21 -335 24 -123 2 -220 -1 -227 -6 -6 -5 -17 -8
-25 -7 -7 2 -23 0 -35 -4 -13 -5 -36 -2 -58 8 -49 20 -117 21 -109 1 3 -9 -5
-21 -19 -31 -33 -21 -38 -36 -25 -77 8 -28 22 -40 74 -67 40 -21 71 -45 84
-66 26 -42 25 -53 -5 -61 -14 -4 -24 -11 -22 -18 2 -6 1 -18 -4 -27 -18 -36
55 -130 113 -144 22 -6 30 -1 55 37 25 37 33 43 58 39 17 -1 38 -8 49 -13 16
-9 12 -14 -35 -39 -29 -16 -64 -31 -77 -34 -14 -2 -29 -8 -35 -14 -5 -5 -21
-6 -39 0 -17 4 -37 5 -45 0 -9 -4 -31 -3 -51 5 -28 9 -38 19 -43 41 -4 15 -18
62 -31 103 -23 67 -28 76 -54 80 -18 3 -30 12 -33 25 -2 10 -23 38 -47 61 -24
22 -44 47 -44 55 0 30 -192 60 -218 34 -20 -20 -3 -73 50 -150 19 -28 48 -72
64 -100 37 -65 65 -88 142 -121 64 -28 78 -43 40 -45 -50 -2 -85 -11 -133 -36
-64 -33 -146 -39 -171 -12 -12 14 -15 27 -9 56 4 21 6 71 5 110 -1 61 -6 80
-28 114 -28 43 -91 83 -116 73 -9 -3 -20 3 -28 15 -7 12 -18 21 -25 21 -17 0
-16 -8 2 -26 18 -18 9 -44 -16 -44 -10 0 -19 -4 -19 -10 0 -5 11 -10 24 -10
30 0 42 -16 26 -35 -7 -8 -9 -15 -6 -15 4 0 2 -9 -4 -20 -6 -11 -17 -20 -25
-20 -18 0 -18 -8 -1 -39 7 -13 12 -31 10 -40 -5 -21 1 -29 59 -75 46 -37 65
-67 31 -48 -9 5 -25 7 -35 5 -36 -10 -278 57 -299 82 -9 10 -4 27 21 74 27 52
30 65 21 89 -6 15 -13 43 -15 63 -2 19 -9 45 -16 56 -6 12 -11 29 -11 39 0 18
-9 29 -96 117 l-58 57 -74 0 c-67 0 -73 -2 -67 -17z m2252 -1275 c-7 -26 45
-118 65 -118 11 0 77 66 79 79 10 82 36 63 35 -26 l-1 -57 -50 -14 c-27 -8
-67 -20 -87 -27 -35 -12 -37 -12 -43 14 -4 14 -13 33 -20 41 -8 8 -18 27 -24
41 -8 23 -6 32 16 58 31 37 37 39 30 9z"/>
<path d="M810 2769 c-9 -16 -14 -18 -26 -8 -21 17 -18 6 16 -61 17 -33 30 -66
30 -74 0 -7 7 -16 15 -20 10 -4 15 1 15 15 0 11 5 30 11 41 9 17 8 24 -3 32
-11 8 -12 19 -7 40 6 22 4 32 -9 42 -23 18 -30 17 -42 -7z"/>
<path d="M2891 1250 c0 -59 -4 -106 -10 -114 -7 -9 -26 -12 -54 -9 -44 5 -111
4 -163 -1 -40 -4 -105 -48 -127 -86 -10 -16 -22 -30 -27 -30 -12 0 -57 -119
-62 -166 -5 -39 -28 -90 -57 -126 -21 -27 3 -22 30 6 13 13 76 49 139 81 145
73 192 104 259 174 l53 56 -6 -60 c-7 -70 -8 -75 -35 -177 -16 -64 -32 -102
-58 -137 -1 -2 -21 9 -44 24 -46 32 -109 41 -149 20 -14 -7 -43 -16 -66 -19
-42 -7 -180 -101 -198 -134 -5 -9 -28 -39 -51 -67 -50 -60 -65 -87 -70 -126
-5 -33 -2 -34 28 -15 12 8 51 24 87 35 152 49 199 67 277 108 91 49 110 45 70
-15 -33 -51 -69 -123 -64 -128 2 -3 12 8 22 23 10 15 32 42 49 58 17 17 42 45
56 62 25 32 48 33 54 2 2 -8 6 -25 9 -39 7 -26 15 -80 23 -140 7 -61 47 -194
67 -223 16 -23 101 -77 122 -77 3 0 5 82 4 183 l-1 182 -39 77 c-27 55 -50 85
-76 103 -21 14 -43 25 -49 25 -6 0 -17 7 -24 15 -9 11 -8 21 5 47 26 50 61
164 75 246 9 50 19 76 31 82 15 9 20 1 39 -55 12 -36 26 -67 31 -70 5 -4 9 41
9 109 0 120 -2 126 -42 105 -29 -16 -55 10 -39 39 16 30 17 191 1 225 -7 15
-17 27 -22 27 -4 0 -8 -45 -7 -100z"/>
</g>
</svg>
